<svg width="101" height="96" viewBox="0 0 101 96" fill="none" xmlns="http://www.w3.org/2000/svg">
<path d="M3 77.4889C5.63425 82.3057 9.32057 88.7131 12.6893 92.9575M12.6893 92.9575C13.0773 93.4467 15.6922 89.5543 15.7977 89.3645C18.1163 85.2052 19.8244 80.8674 21.4712 76.4086M12.6893 92.9575C4.41585 64.2501 15.6502 36.2295 34.9276 27.5198C36.8383 26.6566 38.9187 25.719 41.0728 24.9724M41.0728 24.9724C44.5033 23.7834 48.1207 23.0785 51.5368 23.9288C54.6894 24.7137 58.4687 27.0763 59.3815 30.3787C61.0864 36.5476 54.2134 41.4514 48.5238 39.1855C43.5238 37.1944 39.7366 30.1664 41.0728 24.9724ZM41.0728 24.9724C41.101 24.8628 41.1315 24.7541 41.1643 24.6462C49.0771 -1.38838 80.8019 -1.82007 98 12.1572" stroke="#FFFA88" stroke-width="5.58817" stroke-miterlimit="1.5" stroke-linecap="round" stroke-linejoin="round"/>
</svg>
