<svg width="144" height="137" viewBox="0 0 144 137" fill="none" xmlns="http://www.w3.org/2000/svg">
<path fill-rule="evenodd" clip-rule="evenodd" d="M86.3408 39.7028C75.9932 40.543 66.1099 44.2354 60.8697 49.2323L59.5652 50.4705L57.0889 50.4263C46.2106 50.1388 35.2881 53.1016 15.9195 61.7246C10.2814 64.2452 6.21308 64.4442 3.51563 62.4101C2.69754 61.791 1.65837 61.7025 1.65837 62.2553C1.65837 63.3608 5.28445 65.9477 9.0432 67.5396C12.0723 68.822 12.1166 68.7115 8.18092 69.7286C5.04126 70.5466 4.53272 70.613 1.21617 70.2371C-0.309445 70.0602 1.59204 72.1607 3.64831 72.9124C12.404 76.1184 19.6119 75.3888 40.7714 69.0431C44.5965 67.8934 47.7804 66.9648 47.8689 66.9648C47.891 66.9648 43.8669 85.8249 60.1401 89.4289C80.0394 93.8288 96.401 75.1235 83.8202 62.4101C82.8253 61.4151 81.565 60.1106 81.0122 59.5357C80.4595 58.9387 79.0444 57.7669 77.8726 56.9488C75.2856 55.1358 75.3077 55.3126 77.6736 54.384C88.0654 50.2936 95.1849 50.7137 105.798 56.0202C125.012 65.6382 135.271 65.0191 141.373 53.8755C143.562 49.8956 143.496 45.562 141.307 49.0333C140.202 50.78 137.04 52.7257 134.033 53.4996C132.021 54.0302 131.954 54.0302 132.64 53.389C134.718 51.4433 133.922 44.8766 131.711 45.6283C131.468 45.7168 130.871 46.358 130.385 47.0655C127.798 50.8906 122.359 50.8906 114.686 47.0655C110.065 44.766 94.1679 39.0616 86.3408 39.7028ZM114.2 48.5027C121.098 51.7308 124.149 52.3499 128.328 51.2886C131.158 50.581 130.805 50.9569 127.112 54.6936C126.825 54.981 126.869 55.4453 127.179 55.6885C128.395 56.6614 133.591 56.1086 137.283 54.6272C139.627 53.6765 139.693 53.6986 138.786 54.9368C137.327 56.9488 135.315 58.6071 131.977 59.801C125.299 62.2111 120.17 61.0613 108.451 55.4674C97.197 50.0725 96.0693 49.8735 91.9126 49.7408C86.0091 49.564 78.8675 50.979 74.954 53.5659L73.8485 54.3177C73.8264 54.3177 63.2355 51.0011 63.2134 50.979C63.1692 50.9348 64.0978 50.2273 65.2918 49.4534C72.6324 44.6113 79.5972 42.7982 86.6946 41.8917C94.8312 40.8304 109.91 46.4906 114.2 48.5027ZM61.2677 53.2785C69.0284 54.0302 77.5188 57.4573 79.6193 60.6633C80.1278 61.4372 80.0836 61.4593 77.9389 60.995C74.357 60.199 71.0847 60.0221 65.9551 60.2875C57.7743 60.7297 53.5954 61.6583 36.4599 66.9206C24.1224 70.7235 18.1306 72.0501 13.3768 72.0501C9.30855 72.0501 8.91052 71.9175 11.011 71.2542C13.3547 70.5024 14.1064 70.0823 14.9466 69.618C16.4944 68.7557 15.0572 67.5175 12.7798 66.8985C10.9668 66.3899 9.37486 65.6824 10.0382 65.6603C12.006 65.5939 15.6542 64.4884 23.2159 61.6804C42.2086 54.583 52.1583 52.3941 61.2677 53.2785ZM73.8927 64.0904C74.954 67.5175 70.3108 75.035 64.8717 78.6611C61.9973 80.5847 57.4868 80.9827 55.519 79.4571C54.1482 78.3958 58.526 70.7014 63.1471 66.0583C66.3089 62.8744 65.9993 63.007 70.1782 63.0513L73.5831 63.0955L73.8927 64.0904ZM78.5359 63.5377C81.4765 64.0683 82.1398 64.2894 83.2011 65.2623C87.6895 69.3748 84.4393 79.8109 76.8555 85.648C70.5098 90.5123 57.9733 89.5836 55.3421 84.5204C54.9442 83.7465 54.4798 80.8943 54.7673 80.8943C54.8115 80.8943 55.4527 81.1154 56.1823 81.3586C65.6013 84.6088 79.7077 72.0723 76.0816 63.604C75.8605 63.1176 76.1258 63.0955 78.5359 63.5377ZM61.2456 64.1347C55.3864 68.2693 51.915 76.5606 52.6005 82.6189C52.6447 83.0611 52.91 83.3264 52.8658 83.3264C52.4457 83.3264 51.1412 79.3687 50.7432 76.9586C49.6819 70.3698 51.6718 67.7165 52.7995 65.8593C53.0427 65.4613 63.0586 62.8302 61.2456 64.1347Z" fill="#5E6EFF"/>
</svg>
