<svg width="141" height="88" viewBox="0 0 141 88" fill="none" xmlns="http://www.w3.org/2000/svg">
<path d="M22.0677 4.79811L22.0686 4.79736C24.4246 2.81665 27.614 2.14175 31.3067 2.63503C35.005 3.12907 39.1289 4.78991 43.198 7.3695C51.3427 12.5328 59.0558 21.2404 62.5123 31.017C69.2757 50.4423 63.0905 68.7035 51.8823 78.8113C46.2793 83.8641 39.444 86.8622 32.3509 86.9954C25.2725 87.1283 17.8452 84.4104 11.0276 77.8656L11.0266 77.8646C1.39651 68.6454 -0.838813 58.4901 2.38144 50.7572C5.60509 43.016 14.4715 37.2772 27.9487 37.2772C30.3429 37.2772 32.2192 37.2601 33.6721 37.1552C35.1037 37.0518 36.2516 36.8571 37.1181 36.4276C38.0669 35.9572 38.6221 35.2356 38.9064 34.2827C39.1652 33.4153 39.2 32.3479 39.2 31.1515C39.2 26.0976 37.3888 20.3396 34.892 15.8478C33.641 13.5972 32.1926 11.618 30.6671 10.1873C29.1638 8.77751 27.46 7.78491 25.7121 7.78491C24.5012 7.78491 23.5112 7.64673 22.7568 7.42394C21.9897 7.19741 21.5359 6.90468 21.3083 6.65026C21.1129 6.43191 21.0764 6.24447 21.1278 6.02977C21.1928 5.75862 21.4335 5.33004 22.0677 4.79811Z" stroke="#477FFF" stroke-width="2"/>
<path d="M133.473 26.3611L133.475 26.3642C142.162 44.52 140.787 61.6714 133.075 72.8951C125.392 84.0758 111.28 89.5851 93.9459 84.2484C79.7374 79.8558 74.4599 67.1225 76.498 55.3899C78.5371 43.6513 87.876 33.0834 102.877 33.0834C105.855 33.0834 108.06 32.1166 109.26 30.2638C110.435 28.4498 110.467 26.0579 109.743 23.5893C108.293 18.6438 103.646 12.736 96.7043 8.31416L96.7011 8.31209C94.9382 7.19872 93.5692 6.27925 92.5484 5.50201C91.5122 4.71306 90.9033 4.12105 90.5945 3.67353C90.3152 3.26884 90.3755 3.13362 90.3905 3.1C90.391 3.09871 90.3916 3.09758 90.392 3.09658C90.4492 2.96019 90.6706 2.68548 91.3569 2.28698L91.36 2.28512C93.651 0.94361 96.9001 0.66726 100.748 1.38592C104.575 2.10062 108.863 3.77701 113.104 6.16158C121.608 10.9421 129.721 18.4501 133.473 26.3611Z" stroke="#477FFF" stroke-width="2"/>
</svg>
