<svg width="122" height="118" viewBox="0 0 122 118" fill="none" xmlns="http://www.w3.org/2000/svg">
<path fill-rule="evenodd" clip-rule="evenodd" d="M73.2939 35.6455C64.5099 36.3588 56.12 39.4932 51.6717 43.7351L50.5643 44.7861L48.4622 44.7486C39.2277 44.5046 29.9557 47.0197 13.514 54.3397C8.7278 56.4794 5.27424 56.6483 2.9844 54.9215C2.28994 54.396 1.40779 54.3209 1.40779 54.7902C1.40779 55.7286 4.48593 57.9246 7.6767 59.276C10.2481 60.3646 10.2856 60.2708 6.94472 61.1341C4.27949 61.8286 3.8478 61.8849 1.03241 61.5658C-0.262669 61.4157 1.35149 63.1988 3.09703 63.8369C10.5296 66.5585 16.6484 65.9391 34.6105 60.5523C37.8576 59.5763 40.5603 58.788 40.6354 58.788C40.6542 58.788 37.2382 74.7982 51.0523 77.8575C67.9446 81.5926 81.8339 65.7138 71.1542 54.9215C70.3096 54.0769 69.2397 52.9695 68.7705 52.4815C68.3013 51.9748 67.1 50.98 66.1053 50.2855C63.9093 48.7465 63.928 48.8966 65.9363 48.1083C74.7579 44.636 80.8016 44.9926 89.8108 49.4972C106.121 57.6618 114.83 57.1363 120.01 47.6766C121.869 44.2981 121.812 40.6194 119.954 43.5661C119.016 45.0489 116.332 46.7006 113.779 47.3575C112.071 47.808 112.015 47.808 112.597 47.2637C114.361 45.612 113.685 40.0375 111.808 40.6757C111.602 40.7508 111.095 41.2951 110.682 41.8957C108.486 45.1428 103.869 45.1428 97.356 41.8957C93.4333 39.9437 79.9382 35.1012 73.2939 35.6455ZM96.9431 43.1157C102.799 45.856 105.389 46.3815 108.937 45.4806C111.339 44.88 111.039 45.1991 107.904 48.3711C107.66 48.6151 107.698 49.0092 107.961 49.2157C108.993 50.0415 113.404 49.5723 116.538 48.3148C118.528 47.5077 118.584 47.5265 117.814 48.5775C116.576 50.2855 114.868 51.6932 112.034 52.7068C106.365 54.7526 102.011 53.7766 92.0631 49.028C82.5096 44.4483 81.5523 44.2794 78.0237 44.1668C73.0123 44.0166 66.9499 45.2178 63.6277 47.4138L62.6893 48.052C62.6705 48.052 53.68 45.2366 53.6613 45.2178C53.6237 45.1803 54.412 44.5797 55.4256 43.9228C61.657 39.8123 67.5693 38.2732 73.5942 37.5037C80.5013 36.6028 93.3019 41.4077 96.9431 43.1157ZM52.0096 47.1698C58.5976 47.808 65.805 50.7172 67.588 53.4388C68.0197 54.0957 67.9822 54.1145 66.1616 53.7203C63.121 53.0446 60.3431 52.8945 55.9886 53.1197C49.044 53.4951 45.4966 54.2834 30.9505 58.7505C20.4773 61.9788 15.3909 63.1049 11.3555 63.1049C7.90195 63.1049 7.56407 62.9923 9.34715 62.4292C11.3367 61.7911 11.9748 61.4345 12.6881 61.0403C14.0019 60.3083 12.7819 59.2572 10.8487 58.7317C9.30961 58.3 7.95824 57.6994 8.52132 57.6806C10.1918 57.6243 13.2887 56.6858 19.7077 54.3022C35.8305 48.2772 44.2766 46.4191 52.0096 47.1698ZM62.7268 56.348C63.6277 59.2572 59.6862 65.6388 55.069 68.7169C52.629 70.3498 48.8 70.6877 47.1296 69.3926C45.9659 68.4917 49.6822 61.96 53.605 58.0185C56.289 55.3157 56.0262 55.4283 59.5736 55.4658L62.464 55.5034L62.7268 56.348ZM66.6683 55.8788C69.1646 56.3292 69.7277 56.5169 70.6286 57.3428C74.4388 60.8338 71.6797 69.6929 65.2419 74.648C59.8551 78.7772 49.213 77.9889 46.9794 73.6908C46.6416 73.0338 46.2474 70.6126 46.4914 70.6126C46.529 70.6126 47.0733 70.8003 47.6926 71.0068C55.6883 73.7658 67.6631 63.1237 64.585 55.9351C64.3973 55.5221 64.6225 55.5034 66.6683 55.8788ZM51.9908 56.3855C47.017 59.8954 44.0702 66.9338 44.652 72.0766C44.6896 72.452 44.9148 72.6772 44.8773 72.6772C44.5206 72.6772 43.4133 69.3175 43.0754 67.2717C42.1745 61.6785 43.8637 59.4262 44.821 57.8495C45.0274 57.5117 53.5299 55.2782 51.9908 56.3855Z" fill="#F21F58"/>
</svg>
