<svg width="106" height="106" viewBox="0 0 106 106" fill="none" xmlns="http://www.w3.org/2000/svg">
<path fill-rule="evenodd" clip-rule="evenodd" d="M51.4168 9.04828C51.0196 12.3578 51.0461 20.9625 51.6286 22.0745C52.9789 24.7751 54.2762 22.657 54.5674 17.3088C54.8057 12.649 55.0175 10.3986 55.044 9.20714C55.1499 6.55952 51.6815 6.77133 51.4168 9.04828ZM69.1293 9.78962C67.276 10.531 56.9238 29.3555 56.9238 32.0031C56.9238 32.7444 58.0623 32.9827 58.936 32.4002C59.8097 31.8178 61.9013 28.5877 64.4695 23.7955C67.329 18.5003 70.3737 12.9932 71.1151 11.8283C72.28 9.97495 71.2739 8.94238 69.1293 9.78962ZM34.2867 13.8405C33.8101 14.1847 33.8895 14.3435 35.3192 17.0706C40.7733 27.3433 41.0646 28.5612 43.7651 28.217C45.8038 27.9522 45.8038 27.8199 43.0503 22.7365C39.8996 16.8587 38.1787 14.0788 37.5697 13.761C36.8813 13.3639 34.8691 13.4169 34.2867 13.8405ZM78.2372 15.5614C76.7015 16.1969 68.5733 25.8342 68.5733 27.0256C68.5733 29.2496 72.5977 26.0989 79.7728 18.2885C81.9173 15.9321 81.0701 14.3965 78.2372 15.5614ZM23.9079 20.8037C21.4986 21.2803 25.0729 25.6488 27.8794 25.6488C30.1299 25.6488 30.2093 24.5898 28.1177 22.6041C26.8733 21.3862 25.6289 20.4595 23.9079 20.8037ZM87.7421 24.6163C86.2594 25.4106 84.3796 27.105 81.0701 29.3025C77.1516 31.8972 72.9949 34.836 71.7505 35.9216C69.6059 37.7749 71.3798 38.2515 74.0539 36.504C74.9541 35.9216 77.6812 34.2271 80.117 32.7709C85.9153 29.276 91.8459 25.3841 91.8459 25.1193C91.8724 24.0867 89.3307 23.769 87.7421 24.6163ZM51.6815 26.2313C51.205 26.7079 51.2844 29.2231 51.7874 29.7261C53.5878 31.5265 55.9177 28.2699 54.2497 26.2843C53.879 25.8342 52.1051 25.8077 51.6815 26.2313ZM30.024 28.6671C29.3886 29.1172 29.6533 29.4879 33.863 33.9888C38.8141 39.284 39.2642 39.5488 41.4088 38.5692C42.3884 38.1191 42.2825 37.9073 40.1644 35.4979C34.7368 29.3819 31.7714 27.3962 30.024 28.6671ZM14.9854 34.4654C14.0058 35.2067 14.6148 35.5774 20.6514 37.9602C26.7145 40.3431 30.024 42.0376 34.6573 45.0294C37.2785 46.7239 41.647 46.8033 40.2703 45.1088C37.1461 41.4021 17.0241 32.9033 14.9854 34.4654ZM88.6953 39.4429C74.0539 44.6852 72.9154 45.2412 73.9215 46.2473C74.3981 46.7239 75.113 46.6444 78.1312 45.7442C97.8825 39.8665 98.2532 40.0783 95.8438 38.3309C94.5994 37.4307 94.0434 37.5101 88.6953 39.4429ZM64.6019 40.5284C62.5897 42.2759 62.4044 42.8319 63.6488 43.176C66.164 43.838 69.6853 40.3696 69.6589 40.396C69.7912 40.2637 69.8971 40.0783 69.8707 39.893C69.8707 39.7077 69.7648 39.5223 69.6324 39.3899C68.3351 38.3044 66.72 38.6751 64.6019 40.5284ZM51.3373 43.7056L50.7813 45.8237C49.6958 50.0599 46.704 53.7136 44.3476 53.7136C42.6267 53.7136 43.6592 55.1698 45.592 55.4875C48.1602 55.8846 50.4371 60.2267 50.543 64.4629C50.6225 67.3223 53.5349 67.3753 54.0909 65.3101C55.5471 59.962 56.7385 57.8174 59.8362 55.4345C61.7425 53.9783 61.769 53.7136 60.1539 52.628C57.5592 50.8806 56.9503 49.954 55.4147 45.4C53.6937 40.2637 51.761 42.1435 51.3373 43.7056ZM13.6352 45.6648C13.1057 46.1943 13.1056 46.9092 13.6616 48.0741C14.35 49.5039 15.3032 49.8216 23.0343 50.9336C25.576 51.3042 28.7267 51.8602 30.024 52.178C32.6981 52.8399 32.9364 52.7075 32.751 51.013C32.5657 49.4244 31.9832 48.8155 30.2888 48.286C27.7735 47.5446 27.1381 47.4122 21.7633 46.565C18.9304 46.1149 16.1504 45.6383 15.5414 45.506C14.0852 45.1882 14.1383 45.1882 13.6352 45.6648ZM54.1438 50.7482C54.6733 51.5425 55.4941 52.2574 56.5796 52.8928C58.3535 53.9254 58.5124 54.1107 57.7181 54.3755C56.9238 54.6402 54.8851 56.4141 53.9585 57.6585L53.1377 58.7705L52.3964 57.5791C51.655 56.4141 49.9341 54.958 48.9015 54.6402C48.4249 54.4814 48.5044 54.349 49.6958 53.3164C52.0257 51.2778 52.5552 48.2595 53.0583 49.1332C53.2171 49.345 53.6937 50.0863 54.1438 50.7482ZM68.3615 53.184C67.2231 53.6341 68.7587 56.1494 70.3737 56.4406C73.1272 56.9701 85.2533 56.9172 85.2533 56.3877C85.2533 55.6199 83.7972 54.0578 82.7911 53.7401C81.3084 53.29 69.3147 52.8134 68.3615 53.184ZM86.6831 54.0842C86.1535 55.4875 88.4305 56.7583 92.4019 57.2349C96.4263 57.7115 96.9558 57.4202 95.3937 55.5404C94.0699 54.0048 87.1596 52.8399 86.6831 54.0842ZM34.5249 55.7522C33.1217 57.1555 35.0545 59.8825 37.3579 59.7501C38.9465 59.6707 39.3436 58.85 38.6288 57.129C38.0463 55.6728 35.4781 54.8256 34.5249 55.7522ZM23.8286 57.0496C20.572 57.7115 16.0181 58.4793 13.5028 58.744C10.0874 59.1412 9.00189 59.4324 9.00189 60.0414C9.00189 61.1004 11.2523 62.3183 12.8144 62.1065C13.3969 62.0271 15.4356 61.7623 17.3419 61.5505C25.0994 60.5974 30.4476 59.1941 29.9181 58.241C29.1503 56.8113 27.0057 56.3877 23.8286 57.0496ZM72.836 63.6951C69.0499 65.522 73.5244 68.4608 77.6017 66.8193C78.8726 66.3162 77.7341 64.7806 76.4632 64.2246C74.3716 63.298 73.8421 63.2185 72.836 63.6951ZM64.0724 65.5749C62.5368 66.078 62.1131 67.4282 63.2516 68.3284C63.6752 68.6726 65.9787 70.7113 68.388 72.8559C78.3166 81.7519 81.2025 83.8964 82.4469 83.3404C84.4326 82.4402 82.9499 80.6663 72.4124 71.5585C66.6935 66.6075 64.8667 65.3101 64.0724 65.5749ZM39.5025 67.5077C37.8609 68.3284 22.7695 84.0553 22.7695 84.929C22.7695 86.6235 26.3437 86.1469 28.0912 84.2141C29.415 82.758 33.4659 78.5218 39.1318 72.7235C44.1623 67.5606 44.3476 65.0719 39.5025 67.5077ZM81.6261 68.4079C80.7789 68.7785 80.1699 69.9964 80.673 70.3671C87.4773 75.1328 90.8398 76.0595 90.8398 73.1471C90.8133 71.5056 83.3471 67.6665 81.6261 68.4079ZM22.7695 71.4791C18.7981 73.4913 18.6922 73.5972 19.7248 74.2591C21.684 75.53 31.083 71.3202 29.2562 69.97C28.1442 69.1492 26.688 69.4934 22.7695 71.4791ZM52.6082 71.5321C51.3903 72.4587 50.9402 76.642 53.932 76.6949C55.097 76.7214 55.9707 75.5035 55.9177 73.4648C55.8648 71.3467 54.1438 70.3406 52.6082 71.5321ZM43.8446 74.974C41.9383 77.3039 37.3049 85.0614 37.3049 85.9351C37.3049 88.265 41.8324 82.9962 45.592 76.2183C47.1541 73.4648 45.8303 72.5381 43.8446 74.974ZM62.7221 75.0534C61.6366 76.3772 71.3269 88.3974 72.889 87.6825C74.2657 87.0471 73.8156 86.2528 68.997 80.7458C63.993 74.9475 63.3046 74.3385 62.7221 75.0534ZM52.7406 81.1959C51.5756 81.9372 50.7813 97.1081 51.8933 97.9818C54.3027 99.941 55.3352 97.214 55.3088 88.9534C55.3088 81.5136 54.7792 79.925 52.7406 81.1959Z" fill="#F21F58" fill-opacity="0.85"/>
</svg>
